<?xml version="1.0" encoding="UTF-8"?>
<svg version="1.1" xmlns="http://www.w3.org/2000/svg" width="512" height="165">
<path d="M0 0 C2.4731795 1.89912562 4.71660977 3.86883578 7 6 C3.6367461 10.82553821 -0.81071979 15.1822121 -6 18 C-10.1559755 17.7975986 -13.42474931 15.91315333 -17.0625 14 C-26.90795398 8.83517168 -38.99171376 8.20852316 -49.75 11.3125 C-53.09413733 12.50683476 -56.02471796 14.04747116 -59 16 C-59.66 16 -60.32 16 -61 16 C-61 16.66 -61 17.32 -61 18 C-61.680625 18.350625 -62.36125 18.70125 -63.0625 19.0625 C-71.11445204 24.37336198 -74.82894251 32.96227673 -77.58203125 41.88671875 C-79.89685308 53.59063099 -77.4249418 64.85830393 -71.1875 74.875 C-65.10524204 83.25131059 -55.40840754 90.28454024 -45 92 C-35.53996539 92.5484078 -27.02827186 92.21345269 -18 89 C-18.639375 88.0925 -19.27875 87.185 -19.9375 86.25 C-22.88684583 81.60254597 -22.88684583 81.60254597 -23 79 C-21.12890625 76.203125 -21.12890625 76.203125 -18.5625 73.25 C-17.71816406 72.26515625 -16.87382812 71.2803125 -16.00390625 70.265625 C-15.34261719 69.51796875 -14.68132812 68.7703125 -14 68 C-10.43217129 68.55602525 -9.07770886 69.68606826 -6.875 72.5 C-4.80112319 75.1880384 -4.80112319 75.1880384 -2 77 C-1.62875 76.01 -1.62875 76.01 -1.25 75 C-0.25781835 72.61876404 0.81046646 70.4064188 2 68.125 C6.92578342 58.21829379 7.63611915 48.09585745 4.125 37.5625 C3.42721946 35.70433627 2.71902525 33.85004671 2 32 C1.32425258 30.00304986 0.6551463 28.00380333 0 26 C1.55444652 24.53308542 3.11892175 23.07679359 4.6875 21.625 C5.55761719 20.81289063 6.42773438 20.00078125 7.32421875 19.1640625 C9.86371107 17.11022491 11.92025866 16.0099332 15 15 C22.57613922 26.41471643 25.34347278 35.89354276 25.4375 49.5625 C25.44765137 50.6151001 25.45780273 51.6677002 25.46826172 52.75219727 C25.3568728 62.79837939 23.51933454 71.48079234 18 79.9375 C17.319375 80.99839844 16.63875 82.05929688 15.9375 83.15234375 C14.75696981 84.88743752 13.52984317 86.59339177 12.2265625 88.23828125 C10.72395743 89.95909391 10.72395743 89.95909391 11.375 92.25 C14.07259432 96.81515961 17.64421837 100.89189223 21.59765625 104.4296875 C23.38354916 106.42948959 24.11775396 108.48899205 25 111 C21.77131254 111.14584064 18.54347635 111.23424106 15.3125 111.3125 C14.40048828 111.35439453 13.48847656 111.39628906 12.54882812 111.43945312 C5.70001173 111.56397706 5.70001173 111.56397706 2.10546875 108.66796875 C1.41066406 107.78753906 0.71585937 106.90710938 0 106 C-1.31175986 104.97186389 -2.6369893 103.95915568 -4 103 C-4.77601563 103.39832031 -5.55203125 103.79664063 -6.3515625 104.20703125 C-23.24828308 112.49408633 -39.80318825 114.24441446 -58 109 C-67.5143759 105.3083021 -74.90721843 100.28413359 -82 93 C-82.95132812 92.09701172 -82.95132812 92.09701172 -83.921875 91.17578125 C-87.90069755 87.11773436 -90.3942965 82.64860936 -92.8125 77.5625 C-93.24792114 76.64960205 -93.24792114 76.64960205 -93.69213867 75.71826172 C-99.88885711 61.94249403 -100.48728061 43.97959049 -95.25390625 29.84765625 C-91.12918818 20.48030588 -86.17583435 13.32618517 -79 6 C-78.45730469 5.4121875 -77.91460937 4.824375 -77.35546875 4.21875 C-76 3 -76 3 -74 3 C-74 2.34 -74 1.68 -74 1 C-53.07051606 -15.2064588 -21.45638275 -13.91765368 0 0 Z " fill="#7B42DF" transform="translate(421,28)"/>
<path d="M0 0 C6.84792094 6.33231278 10.76840805 14.34546417 13.25 23.25 C13.25 24.24 13.25 25.23 13.25 26.25 C6.32 26.25 -0.61 26.25 -7.75 26.25 C-9.07 23.28 -10.39 20.31 -11.75 17.25 C-17.41997531 11.47502514 -21.91268819 9.22087315 -30.0625 8.9375 C-38.1775363 9.11367447 -45.90351229 11.38949194 -51.75 17.25 C-59.79227921 27.88473157 -62.03275991 39.0812413 -60.75 52.25 C-59.71931223 56.39596478 -58.30281866 60.27752816 -56.75 64.25 C-56.39214269 65.57696158 -56.04847505 66.90843318 -55.75 68.25 C-55.09 68.25 -54.43 68.25 -53.75 68.25 C-53.193125 68.9925 -52.63625 69.735 -52.0625 70.5 C-46.65642537 76.92884551 -39.83969211 78.51457344 -31.75 79.25 C-24.64809339 79.43854619 -19.22391493 77.89209453 -13.75 73.25 C-12.76 71.765 -12.76 71.765 -11.75 70.25 C-11.09 70.25 -10.43 70.25 -9.75 70.25 C-9.2859375 68.5484375 -9.2859375 68.5484375 -8.8125 66.8125 C-7.75 63.25 -7.75 63.25 -6.75 62.25 C-5.33429877 62.16348389 -3.914405 62.14295096 -2.49609375 62.15234375 C-1.21508789 62.15717773 -1.21508789 62.15717773 0.09179688 62.16210938 C1.43854492 62.17467773 1.43854492 62.17467773 2.8125 62.1875 C3.71419922 62.19201172 4.61589844 62.19652344 5.54492188 62.20117188 C7.78001314 62.21299775 10.01497437 62.2294778 12.25 62.25 C10.40576288 73.53434298 6.76116272 81.35755656 -1.75 89.25 C-12.9424568 97.24744697 -27.2378438 99.90026476 -40.73242188 97.96582031 C-54.42436 95.51284581 -65.51993536 89.83706469 -73.75 78.25 C-83.16004713 62.80896811 -85.35164403 45.37837714 -81.1875 27.875 C-79.31162534 20.725607 -76.27227216 14.13118152 -71.75 8.25 C-71.09 8.25 -70.43 8.25 -69.75 8.25 C-69.52054688 7.67121094 -69.29109375 7.09242187 -69.0546875 6.49609375 C-64.37373663 -1.56242945 -53.20025011 -5.9373263 -44.75 -8.75 C-29.47933162 -12.35943071 -12.40448677 -9.79301587 0 0 Z " fill="#CCD3DE" transform="translate(144.75,34.75)"/>
<path d="M0 0 C7.30256397 -1.85442534 14.9040619 -3.0681936 22 0 C28.88387575 6.76857673 33.0069436 16.02898769 37.25976562 24.58886719 C39.42837237 28.83967716 41.89719268 32.79853642 44.5625 36.75 C45.24441406 37.79671875 45.92632812 38.8434375 46.62890625 39.921875 C47.08136719 40.60765625 47.53382813 41.2934375 48 42 C52.14004614 36.95320024 55.76489385 31.94564808 58.82421875 26.17578125 C59.94884406 24.09466397 61.16054893 22.11542215 62.4375 20.125 C65.95338738 14.5841395 69.43050435 8.78754322 71.9453125 2.71875 C72.29335938 2.1515625 72.64140625 1.584375 73 1 C80.84502435 -0.59559817 89.02326112 -0.09458584 97 0 C94.11340853 7.60047479 89.49279278 14.23344327 85.15136719 21.06958008 C79.29129094 30.29851603 73.55167169 39.59502986 67.875 48.9375 C67.30898575 49.86728668 67.30898575 49.86728668 66.73153687 50.81585693 C65.64990112 52.59356921 64.57061564 54.3726842 63.4921875 56.15234375 C62.86683105 57.18351318 62.24147461 58.21468262 61.59716797 59.27709961 C61.07010254 60.17565674 60.54303711 61.07421387 60 62 C59.60127686 62.61609131 59.20255371 63.23218262 58.79174805 63.86694336 C57.56278972 67.17789276 57.77641235 70.49545313 57.83984375 73.9765625 C57.84504532 74.74302094 57.85024689 75.50947937 57.85560608 76.29916382 C57.87338163 78.7413043 57.90455877 81.18302069 57.9375 83.625 C57.96511216 86.0740783 57.98981037 88.5230979 58.00868225 90.97225952 C58.02094605 92.49479513 58.03855627 94.01729881 58.06199646 95.53970337 C58.11173191 100.77653617 58.11173191 100.77653617 57 103 C50.73 103 44.46 103 38 103 C38.12503906 100.58171875 38.25007813 98.1634375 38.37890625 95.671875 C39.15138252 72.77981122 35.8557178 57.85504063 21.88525391 39.53491211 C17 32.96620047 17 32.96620047 17 30 C16.34 30 15.68 30 15 30 C12 24.25 12 24.25 12 22 C11.34 22 10.68 22 10 22 C9.67 20.35 9.34 18.7 9 17 C8.34 17 7.68 17 7 17 C6.67386719 16.32453125 6.34773437 15.6490625 6.01171875 14.953125 C5.57472656 14.06109375 5.13773438 13.1690625 4.6875 12.25 C4.25824219 11.36828125 3.82898438 10.4865625 3.38671875 9.578125 C2.08940913 6.97539954 2.08940913 6.97539954 0.26953125 4.859375 C-0.14941406 4.24578125 -0.56835938 3.6321875 -1 3 C-0.67 2.01 -0.34 1.02 0 0 Z " fill="#CDD5E0" transform="translate(222,27)"/>
<path d="M0 0 C1.25425781 0.00902344 2.50851563 0.01804687 3.80078125 0.02734375 C4.75339844 0.03894531 5.70601562 0.05054687 6.6875 0.0625 C8.25748834 3.20247668 7.81694545 6.55426361 7.80102539 10.00048828 C7.80117142 10.82008026 7.80131744 11.63967224 7.8014679 12.48410034 C7.80076974 15.2003644 7.79298188 17.91656038 7.78515625 20.6328125 C7.78329173 22.51325442 7.78186798 24.39369683 7.78086853 26.2741394 C7.77704607 31.22911922 7.76721808 36.18406983 7.75616455 41.13903809 C7.7441485 47.08115536 7.7395469 53.02328238 7.73371124 58.96540833 C7.7240062 67.99779254 7.70484773 77.03011265 7.6875 86.0625 C22.5375 86.0625 37.3875 86.0625 52.6875 86.0625 C52.6875 91.6725 52.6875 97.2825 52.6875 103.0625 C44.36020649 103.08505403 36.03293656 103.10341682 27.70562077 103.11431217 C23.83929882 103.11954026 19.97299879 103.12663654 16.10668945 103.13793945 C12.37846599 103.148771 8.65026366 103.1547774 4.92202568 103.15737724 C3.49660344 103.15923101 2.07118241 103.16285071 0.64576912 103.16823006 C-1.34413408 103.17544393 -3.33405834 103.17590808 -5.32397461 103.17602539 C-6.45870712 103.178246 -7.59343964 103.18046661 -8.76255798 103.18275452 C-11.3125 103.0625 -11.3125 103.0625 -12.3125 102.0625 C-12.40784958 98.92690114 -12.43800879 95.81336387 -12.42602539 92.67749023 C-12.42617142 91.69223358 -12.42631744 90.70697693 -12.4264679 89.69186401 C-12.42576832 86.41825193 -12.41797385 83.14469596 -12.41015625 79.87109375 C-12.40829223 77.60807832 -12.40686825 75.34506249 -12.40586853 73.08204651 C-12.4020421 67.11271052 -12.39221075 61.14339868 -12.38116455 55.17407227 C-12.37095312 49.08805671 -12.36637149 43.00203727 -12.36132812 36.91601562 C-12.35058859 24.96483311 -12.33351068 13.01366856 -12.3125 1.0625 C-8.12517308 0.15466993 -4.2927551 -0.04011921 0 0 Z " fill="#C9D0DC" transform="translate(183.3125,26.9375)"/>
<path d="M0 0 C2.87029869 1.79393668 4.49131638 2.98263276 6 6 C6.9083044 15.38084868 6.9083044 15.38084868 4.5625 19.5625 C0.40488764 21.89481913 -4.31718908 23.38254897 -9.109375 22.69921875 C-12.45070302 21.46347967 -14.38436612 19.05316639 -16 16 C-16.87498172 12.11119235 -16.93571797 8.651267 -14.9375 5.125 C-10.58563852 -0.26301897 -6.61751484 -0.85719104 0 0 Z " fill="#703DE0" transform="translate(451,15)"/>
<path d="M0 0 C1.32451172 0.01353516 1.32451172 0.01353516 2.67578125 0.02734375 C3.67158203 0.04474609 3.67158203 0.04474609 4.6875 0.0625 C-0.76240623 2.79316581 -5.10860343 4.29744745 -11.2265625 4.62109375 C-13.77166303 5.15966371 -14.58218074 6.18715399 -16.3125 8.0625 C-16.9725 8.0625 -17.6325 8.0625 -18.3125 8.0625 C-19.98215451 8.38052943 -21.64928518 8.71234951 -23.3125 9.0625 C-23.3125 10.0525 -23.3125 11.0425 -23.3125 12.0625 C-24.42625 12.330625 -25.54 12.59875 -26.6875 12.875 C-30.53090951 13.72059019 -30.53090951 13.72059019 -32.3125 17.0625 C-33.3025 17.3925 -34.2925 17.7225 -35.3125 18.0625 C-35.9725 19.0525 -36.6325 20.0425 -37.3125 21.0625 C-38.62637169 22.41501497 -39.95676252 23.75195377 -41.3125 25.0625 C-41.9725 24.0725 -42.6325 23.0825 -43.3125 22.0625 C-41.86032324 20.55653892 -40.40057139 19.05787896 -38.9375 17.5625 C-38.12539063 16.7271875 -37.31328125 15.891875 -36.4765625 15.03125 C-34.3125 13.0625 -34.3125 13.0625 -32.3125 13.0625 C-32.3125 12.4025 -32.3125 11.7425 -32.3125 11.0625 C-23.36384258 4.13322987 -11.32486472 -0.1509982 0 0 Z " fill="#C656DA" transform="translate(379.3125,17.9375)"/>
<path d="M0 0 C1.5149707 -0.00193359 1.5149707 -0.00193359 3.06054688 -0.00390625 C4.11435547 -0.00003906 5.16816406 0.00382812 6.25390625 0.0078125 C7.30384766 0.00394531 8.35378906 0.00007813 9.43554688 -0.00390625 C10.95245117 -0.00197266 10.95245117 -0.00197266 12.5 0 C13.42353271 0.00112793 14.34706543 0.00225586 15.29858398 0.00341797 C17.81640625 0.1328125 17.81640625 0.1328125 20.02368164 0.70361328 C21.90404611 1.35698175 21.90404611 1.35698175 23.81640625 0.1328125 C24.31140625 1.6178125 24.31140625 1.6178125 24.81640625 3.1328125 C26.57600621 4.29699194 26.57600621 4.29699194 28.69140625 5.1953125 C31.27866999 6.38392629 33.42351612 7.53755242 35.81640625 9.1328125 C35.81640625 9.7928125 35.81640625 10.4528125 35.81640625 11.1328125 C31.80649848 9.58059014 27.90591771 7.82903527 24 6.03515625 C19.21154466 4.0563849 14.6983117 3.98103734 9.56640625 4.0078125 C8.84066406 4.00394531 8.11492187 4.00007813 7.3671875 3.99609375 C2.43565798 4.00488436 -2.30129181 4.43691879 -7.18359375 5.1328125 C-7.51359375 3.8128125 -7.84359375 2.4928125 -8.18359375 1.1328125 C-5.17401744 0.1296204 -3.14493979 0.00384568 0 0 Z " fill="#B753D7" transform="translate(376.18359375,33.8671875)"/>
<path d="M0 0 C7.75988287 5.12445095 7.75988287 5.12445095 10 10 C10 10.66 10 11.32 10 12 C6.72933434 12.08706892 3.45896635 12.14041241 0.1875 12.1875 C-0.74126953 12.21263672 -1.67003906 12.23777344 -2.62695312 12.26367188 C-3.9659668 12.27817383 -3.9659668 12.27817383 -5.33203125 12.29296875 C-6.15421143 12.3086792 -6.9763916 12.32438965 -7.82348633 12.34057617 C-10.47502434 11.92566921 -11.33263592 11.04470249 -13 9 C-10.00519083 8.1276588 -7.36424089 7.89170234 -4.25 7.9375 C-3.45078125 7.94652344 -2.6515625 7.95554688 -1.828125 7.96484375 C-1.22484375 7.97644531 -0.6215625 7.98804688 0 8 C0.79953138 4.71303767 1.09658936 3.28976808 0 0 Z " fill="#5343E4" transform="translate(436,127)"/>
<path d="M0 0 C0.66 0 1.32 0 2 0 C1.6875 1.9375 1.6875 1.9375 1 4 C0.01 4.33 -0.98 4.66 -2 5 C-1.7525 5.556875 -1.505 6.11375 -1.25 6.6875 C-1.12625 7.8321875 -1.12625 7.8321875 -1 9 C-1.639375 9.78375 -2.27875 10.5675 -2.9375 11.375 C-5.4418592 14.56236626 -5.34369015 16.04756328 -5 20 C-5 23 -5 23 -6 26 C-6.66 26 -7.32 26 -8 26 C-8.33 30.29 -8.66 34.58 -9 39 C-9.33 39 -9.66 39 -10 39 C-10.64973121 24.94053865 -8.88755147 13.0805621 -1 1 C-0.67 0.67 -0.34 0.34 0 0 Z " fill="#B950D9" transform="translate(333,45)"/>
<path d="M0 0 C1.32 0.66 2.64 1.32 4 2 C2.95814698 4.09810955 1.90259495 6.18613045 0.81640625 8.26171875 C-3.98225484 17.54510983 -6.43233434 25.52754726 -7 36 C-7.33 36 -7.66 36 -8 36 C-8 28.41 -8 20.82 -8 13 C-6.68 13 -5.36 13 -4 13 C-3.67 10.36 -3.34 7.72 -3 5 C-2.01 5.33 -1.02 5.66 0 6 C0 4.02 0 2.04 0 0 Z " fill="#AB54CE" transform="translate(348,49)"/>
<path d="M0 0 C8.737826 -0.59239498 17.61943389 1.07962259 25 6 C25 6.99 25 7.98 25 9 C22.525 8.505 22.525 8.505 20 8 C20 7.01 20 6.02 20 5 C19.14277344 5.04640625 18.28554688 5.0928125 17.40234375 5.140625 C10.30364522 5.36471018 5.76306095 5.28878955 0 1 C0 0.67 0 0.34 0 0 Z " fill="#B64EDB" transform="translate(388,18)"/>
<path d="M0 0 C2.475 0.99 2.475 0.99 5 2 C4.42415568 4.38564077 3.77772405 6.66682784 3 9 C3.33 9.99 3.66 10.98 4 12 C3.48972277 15.71506714 2.36755574 19.1572932 1.125 22.6875 C0.79757812 23.64011719 0.47015625 24.59273437 0.1328125 25.57421875 C-1 28 -1 28 -4 30 C-3.79503906 29.32453125 -3.59007812 28.6490625 -3.37890625 27.953125 C-2.97478516 26.61507812 -2.97478516 26.61507812 -2.5625 25.25 C-2.29566406 24.36828125 -2.02882813 23.4865625 -1.75390625 22.578125 C-0.2736249 17.51602298 0.12317735 13.03359683 0.0625 7.75 C0.05798828 7.00492187 0.05347656 6.25984375 0.04882812 5.4921875 C0.03709246 3.6614236 0.0191585 1.83070127 0 0 Z " fill="#6B3BE0" transform="translate(427,69)"/>
<path d="M0 0 C0.66 0.33 1.32 0.66 2 1 C2 1.99 2 2.98 2 4 C4.97411124 5.23921302 7.85262818 6.30058404 11 7 C11 7.66 11 8.32 11 9 C11.66 9 12.32 9 13 9 C13.33 8.34 13.66 7.68 14 7 C14.33 8.32 14.66 9.64 15 11 C17.31 11 19.62 11 22 11 C22 11.66 22 12.32 22 13 C18.50537893 14.19360871 17.09580601 14.03731276 13.58984375 12.671875 C12.36497038 12.04556434 11.14757652 11.40444223 9.9375 10.75 C9.32583984 10.43675781 8.71417969 10.12351563 8.08398438 9.80078125 C4.83796744 8.10934324 1.84781739 6.30097964 -1 4 C-0.67 2.68 -0.34 1.36 0 0 Z " fill="#5940E5" transform="translate(346,123)"/>
<path d="M0 0 C0.99 0.33 1.98 0.66 3 1 C2.79503906 1.59167969 2.59007813 2.18335938 2.37890625 2.79296875 C2.10949219 3.58316406 1.84007813 4.37335937 1.5625 5.1875 C1.29566406 5.96480469 1.02882813 6.74210937 0.75390625 7.54296875 C-0.78823966 12.56892614 -1.13567722 17.11112989 -1.125 22.375 C-1.12757812 23.64085938 -1.13015625 24.90671875 -1.1328125 26.2109375 C-1.00316698 29.90964792 -0.59347312 33.35437943 0 37 C-4.36932885 32.63067115 -3.23619634 25.96303043 -3.25976562 20.15673828 C-3.18603535 13.11124294 -2.00932609 6.76951529 0 0 Z " fill="#7C8189" transform="translate(85,57)"/>
<path d="M0 0 C0 0.99 0 1.98 0 3 C-4.22222222 6 -4.22222222 6 -7 6 C-7 6.66 -7 7.32 -7 8 C-7.99 8.66 -8.98 9.32 -10 10 C-10.99 9.67 -11.98 9.34 -13 9 C-11.68 7.35 -10.36 5.7 -9 4 C-8.34 4.33 -7.68 4.66 -7 5 C-6.814375 4.0409375 -6.814375 4.0409375 -6.625 3.0625 C-6.41875 2.381875 -6.2125 1.70125 -6 1 C-4 0 -4 0 0 0 Z " fill="#C157D6" transform="translate(367,38)"/>
<path d="M0 0 C0.66 0.33 1.32 0.66 2 1 C0.99667352 6.94074887 -0.30912706 11.20186518 -4 16 C-5 14 -5 14 -4.00390625 10.7421875 C-3.53110016 9.4502948 -3.05028031 8.16131362 -2.5625 6.875 C-2.31951172 6.21628906 -2.07652344 5.55757813 -1.82617188 4.87890625 C-1.22421679 3.25008662 -0.61297588 1.62470425 0 0 Z " fill="#563FE2" transform="translate(428,83)"/>
<path d="M0 0 C0.66 0.33 1.32 0.66 2 1 C1.690625 2.093125 1.38125 3.18625 1.0625 4.3125 C-0.2463099 9.48276323 -0.62926347 14.69261392 -1 20 C-1.33 20 -1.66 20 -2 20 C-2.05379226 17.04142591 -2.09357093 14.08382279 -2.125 11.125 C-2.14175781 10.28324219 -2.15851563 9.44148438 -2.17578125 8.57421875 C-2.18222656 7.76855469 -2.18867188 6.96289062 -2.1953125 6.1328125 C-2.21102295 5.01737061 -2.21102295 5.01737061 -2.22705078 3.87939453 C-2 2 -2 2 0 0 Z " fill="#A14CDD" transform="translate(342,65)"/>
<path d="M0 0 C0.33 0.66 0.66 1.32 1 2 C2.0725 2.12375 3.145 2.2475 4.25 2.375 C8.35685876 3.05947646 10.0131783 4.1941978 13 7 C10.75 7.6875 10.75 7.6875 8 8 C5.6875 6.6875 5.6875 6.6875 4 5 C4 4.34 4 3.68 4 3 C2.35 3.33 0.7 3.66 -1 4 C-0.67 2.68 -0.34 1.36 0 0 Z " fill="#6D3CE2" transform="translate(354,111)"/>
<path d="M0 0 C2.1640625 0.2421875 2.1640625 0.2421875 4.625 0.875 C5.44226563 1.07867187 6.25953125 1.28234375 7.1015625 1.4921875 C8.04128906 1.74355469 8.04128906 1.74355469 9 2 C9 2.99 9 3.98 9 5 C7.741875 4.87625 6.48375 4.7525 5.1875 4.625 C4.12595703 4.52058594 4.12595703 4.52058594 3.04296875 4.4140625 C1 4 1 4 -2 2 C-1.34 1.34 -0.68 0.68 0 0 Z " fill="#583DE5" transform="translate(367,118)"/>
<path d="M0 0 C0.33 0 0.66 0 1 0 C0.9131724 2.12577907 0.8050049 4.25069581 0.6875 6.375 C0.62949219 7.55835937 0.57148438 8.74171875 0.51171875 9.9609375 C0.34285156 10.96382812 0.17398437 11.96671875 0 13 C-0.99 13.66 -1.98 14.32 -3 15 C-3.14285714 6.42857143 -3.14285714 6.42857143 -2 3 C-1.34 3 -0.68 3 0 3 C0 2.01 0 1.02 0 0 Z " fill="#5840E6" transform="translate(443,88)"/>
<path d="M0 0 C-0.66 1.65 -1.32 3.3 -2 5 C-2.598125 4.814375 -3.19625 4.62875 -3.8125 4.4375 C-6.16408762 3.77906313 -6.16408762 3.77906313 -9 5 C-8.67 4.01 -8.34 3.02 -8 2 C-5.10441559 0.5522078 -3.25811062 0 0 0 Z " fill="#523EE3" transform="translate(401,118)"/>
<path d="M0 0 C1.32 0.66 2.64 1.32 4 2 C1.06171403 4.50298434 -1.17902761 5.46930939 -5 6 C-5.33 5.34 -5.66 4.68 -6 4 C-4.35 4 -2.7 4 -1 4 C-0.67 2.68 -0.34 1.36 0 0 Z " fill="#5343E5" transform="translate(409,130)"/>
<path d="M0 0 C0.598125 0.350625 1.19625 0.70125 1.8125 1.0625 C0.5625 2.625 0.5625 2.625 -1.1875 4.0625 C-3.375 3.75 -3.375 3.75 -5.1875 3.0625 C-5.1875 2.0725 -5.1875 1.0825 -5.1875 0.0625 C-2.1875 -0.9375 -2.1875 -0.9375 0 0 Z " fill="#C556DA" transform="translate(373.1875,34.9375)"/>
<path d="M0 0 C1.875 0.3125 1.875 0.3125 4 1 C4.66 1.99 5.32 2.98 6 4 C4.02 4.99 4.02 4.99 2 6 C1.34 4.02 0.68 2.04 0 0 Z " fill="#5640E5" transform="translate(411,101)"/>
<path d="M0 0 C1 3 1 3 0.0625 5.1875 C-0.4634375 6.0846875 -0.4634375 6.0846875 -1 7 C-1.99 6.67 -2.98 6.34 -4 6 C-2.84826645 3.53199953 -1.95216435 1.95216435 0 0 Z " fill="#553FE4" transform="translate(404,100)"/>
<path d="M0 0 C0.66 0.33 1.32 0.66 2 1 C2 1.99 2 2.98 2 4 C2.99 4.33 3.98 4.66 5 5 C4.01 5.33 3.02 5.66 2 6 C1.01 5.34 0.02 4.68 -1 4 C-0.67 2.68 -0.34 1.36 0 0 Z " fill="#6B3EE2" transform="translate(346,123)"/>
</svg>
